<?xml version="1.0" encoding="utf-8"?> 
<!DOCTYPE svg PUBLIC "-//W3C//DTD SVG 1.1//EN" "http://www.w3.org/Graphics/SVG/1.1/DTD/svg11.dtd">
<svg width="7mm" height="7mm" viewBox="0 0 79 79" xmlns="http://www.w3.org/2000/svg" xmlns:xlink="http://www.w3.org/1999/xlink"><defs>

	</defs>
	<svg x="0" y="0" width="79" height="79">
		<g transform="translate(10.00,10.00)">
		</g>
	</svg>
	<svg x="0" y="0" width="79" height="79">
		<g transform="translate(26.22,6.75) scale(1,1) rotate(0.00,13.47,29.22) " fill="rgb(0,114,181)" fill-opacity="1.0" stroke="none" stroke-width="2" stroke-linecap="round" stroke-opacity="1.0">
			<path fill-rule="evenodd" marker-start="none" marker-end="none" d="M 14.25 0.03 L 14.25 0.03 C 15.80 0.17   17.15 0.73 18.30 1.68 L 18.30 1.68 L 18.86 2.20 L 18.86 2.20 C 20.32 3.68   21.06 5.45 21.06 7.57 L 21.06 7.57 L 21.06 33.81 C 22.70 34.95   24.00 36.35 24.99 37.97 L 24.99 37.97 L 25.40 38.68 C 26.30 40.37   26.80 42.20 26.91 44.14 L 26.93 44.98 C 26.93 47.11   26.47 49.12 25.55 50.97 L 25.55 50.97 L 25.14 51.75 C 24.09 53.56   22.71 55.04 20.99 56.18 L 20.99 56.18 L 20.24 56.65 L 20.24 56.65 C 18.43 57.69   16.49 58.29 14.38 58.42 L 14.38 58.42 L 13.47 58.45 C 11.34 58.45   9.35 57.98 7.50 57.07 L 7.50 57.07 L 6.72 56.65 L 6.72 56.65 C 4.91 55.61   3.43 54.22 2.28 52.51 L 2.28 52.51 L 1.80 51.75 C 0.73 49.95   0.16 48.00 0.03 45.91 L 0.03 45.91 L 0.00 45.01 C 0.00 43.04   0.41 41.19 1.20 39.45 L 1.20 39.45 L 1.56 38.71 C 2.59 36.75   4.05 35.14 5.93 33.84 L 5.93 7.59 C 5.93 5.74   6.47 4.13 7.59 2.78 L 7.59 2.78 L 8.10 2.22 L 8.10 2.22 C 9.37 0.95   10.91 0.20 12.69 0.04 L 12.69 0.04 L 13.47 0.00 L 14.25 0.03  ZM 13.15 4.62 C 12.54 4.67   11.99 4.89 11.51 5.25 L 11.27 5.45 C 10.66 6.01   10.37 6.72 10.37 7.59 L 10.37 36.01 C 10.37 36.41   10.24 36.67 10.00 36.78 L 9.29 37.15 C 8.01 37.82   6.98 38.73 6.20 39.89 L 6.20 39.89 L 5.87 40.40 C 5.16 41.63   4.76 42.94 4.68 44.38 L 4.66 45.01 C 4.66 47.31   5.42 49.32 6.94 51.00 L 6.94 51.00 L 7.25 51.33 C 8.86 52.97   10.80 53.84 13.04 53.94 L 13.04 53.94 L 13.49 53.95 C 15.80 53.95   17.81 53.18 19.51 51.62 L 19.51 51.62 L 19.84 51.30 C 21.51 49.64   22.40 47.70 22.51 45.48 L 22.51 45.48 L 22.52 45.03 C 22.52 43.60   22.19 42.24 21.54 40.99 L 21.54 40.99 L 21.25 40.45 C 20.40 39.05   19.24 37.97 17.75 37.20 L 17.01 36.83 C 16.75 36.72   16.62 36.46 16.62 36.06 L 16.62 7.59 C 16.62 6.85   16.39 6.21 15.93 5.67 L 15.93 5.67 L 15.72 5.45 L 15.72 5.45 C 15.18 4.96   14.55 4.68 13.80 4.62 L 13.80 4.62 L 13.47 4.60 L 13.15 4.62  Z">
			</path>
		</g>
		<g transform="translate(49.01,12.40) scale(1,1) rotate(0.00,7.29,9.41) " fill="rgb(0,113,181)" fill-opacity="1.0" stroke="none" stroke-width="2" stroke-linecap="round" stroke-opacity="1.0">
			<path fill-rule="evenodd" marker-start="none" marker-end="none" d="M 7.44 0.18 L 7.44 0.18 C 7.96 0.69   9.17 1.92 9.91 2.75 L 10.22 3.11 L 10.22 3.11 C 10.93 3.92   11.55 4.68 12.09 5.38 L 12.34 5.75 L 12.34 5.75 C 12.92 6.63   13.42 7.58 13.85 8.59 L 14.02 9.02 L 14.02 9.02 C 14.39 10.00   14.58 10.85 14.58 11.58 L 14.56 12.06 L 14.56 12.06 C 14.49 13.17   14.16 14.20 13.58 15.18 L 13.58 15.18 L 13.33 15.58 L 13.33 15.58 C 12.70 16.50   11.89 17.26 10.90 17.83 L 10.47 18.06 C 9.46 18.57   8.39 18.82 7.25 18.82 L 6.77 18.81 C 5.65 18.73   4.61 18.41 3.63 17.83 L 3.23 17.57 L 3.23 17.57 C 2.30 16.95   1.55 16.14 0.98 15.18 L 0.75 14.76 L 0.75 14.76 C 0.25 13.77   0.00 12.71 0.00 11.58 L 0.01 11.23 L 0.01 11.23 C 0.08 10.37   0.36 9.39 0.89 8.27 L 1.12 7.80 L 1.12 7.80 C 1.66 6.71   2.28 5.68 2.98 4.71 L 3.28 4.30 L 3.28 4.30 C 3.98 3.37   4.72 2.54 5.48 1.80 L 7.27 0.00 L 7.44 0.18  Z">
			</path>
		</g>
	</svg>
</svg>
